<svg width="12" height="10" viewBox="0 0 12 10" fill="none" xmlns="http://www.w3.org/2000/svg">
<g clip-path="url(#clip0)">
<path d="M11.0021 3.61147L7.95835 3.22115L6.59793 0.794895C6.35418 0.362422 5.64793 0.356924 5.4021 0.794895L4.04168 3.22115L0.997929 3.61147C0.452096 3.68111 0.233346 4.27301 0.629179 4.61203L2.83126 6.49952L2.31043 9.16583C2.21668 9.64778 2.79376 10.0088 3.2771 9.78338L6.00001 8.52445L8.72293 9.78338C9.20626 10.0069 9.78335 9.64778 9.6896 9.16583L9.16876 6.49952L11.3708 4.61203C11.7667 4.27301 11.5479 3.68111 11.0021 3.61147ZM8.09585 6.19165L8.58959 8.72785L6.00001 7.53122L3.41043 8.72785L3.90418 6.19165L1.80835 4.39579L4.70418 4.02562L6.00001 1.71665L7.29585 4.02562L10.1917 4.39579L8.09585 6.19165Z" fill="white"/>
</g>
<defs>
<clipPath id="clip0">
<rect width="12" height="9.38249" fill="white" transform="translate(0 0.46875)"/>
</clipPath>
</defs>
</svg>
